<svg xmlns="http://www.w3.org/2000/svg" version="1.1" xmlns:xlink="http://www.w3.org/1999/xlink" xmlns:svgjs="http://svgjs.dev/svgjs" width="1000" height="1000" viewBox="0 0 1000 1000"><rect width="1000" height="1000" fill="#ffffff"></rect><g transform="matrix(0.7,0,0,0.7,150.11896067415722,326.3724461442606)"><svg viewBox="0 0 356 177" data-background-color="#051726" preserveAspectRatio="xMidYMid meet" height="497" width="1000" xmlns="http://www.w3.org/2000/svg" xmlns:xlink="http://www.w3.org/1999/xlink"><defs></defs><g id="tight-bounds" transform="matrix(1,0,0,1,-0.06049999999996203,-0.16404992105239558)"><svg viewBox="0 0 356.12052 177.3280998421048" height="177.3280998421048" width="356.12052"><g><svg viewBox="0 0 356.12052 177.3280998421048" height="177.3280998421048" width="356.12052"><g transform="matrix(1,0,0,1,0,82.78082813677112)"><svg viewBox="0 0 356.12052 94.54727170533366" height="94.54727170533366" width="356.12052"><g><path d="M0 94.547v-94.547h356.121v94.547z" fill="#ffffff" stroke="transparent" stroke-width="0" rx="0%" data-fill-palette-color="tertiary"></path><path d="M3.283 91.264v-87.981h349.554v87.981z" fill="#051726" stroke="transparent" stroke-width="0" rx="0%" data-fill-palette-color="quaternary"></path><path d="M9.85 84.697v-74.847h336.421v74.847z" fill="#ffffff" stroke="transparent" stroke-width="0" data-fill-palette-color="tertiary"></path></g><g transform="matrix(1,0,0,1,19.69974,19.69974)"><svg viewBox="0 0 316.72104 55.14779170533366" height="55.14779170533366" width="316.72104"><g><svg viewBox="0 0 316.72104 55.14779170533366" height="55.14779170533366" width="316.72104"><g transform="matrix(1,0,0,1,0,0)"><svg width="316.72104" viewBox="3.5 -35.70000076293945 209.0399932861328 36.400001525878906" height="55.14779170533366" data-palette-color="#051726"><path d="M3.5 0L3.5-35 13.4-35 13.4-7.85 30.1-7.85 30.1 0 3.5 0ZM51.1 0.7Q45.55 0.7 41.12-1.65 36.7-4 34.17-8.15 31.65-12.3 31.65-17.5L31.65-17.5Q31.65-22.7 34.17-26.85 36.7-31 41.12-33.35 45.55-35.7 51.1-35.7L51.1-35.7Q56.65-35.7 61.07-33.35 65.5-31 68.02-26.85 70.55-22.7 70.55-17.5L70.55-17.5Q70.55-12.3 68.02-8.15 65.5-4 61.07-1.65 56.65 0.7 51.1 0.7L51.1 0.7ZM51.1-7.5Q53.75-7.5 55.9-8.75 58.05-10 59.3-12.28 60.55-14.55 60.55-17.5L60.55-17.5Q60.55-20.45 59.3-22.73 58.05-25 55.9-26.25 53.75-27.5 51.1-27.5L51.1-27.5Q48.45-27.5 46.3-26.25 44.15-25 42.9-22.73 41.65-20.45 41.65-17.5L41.65-17.5Q41.65-14.55 42.9-12.28 44.15-10 46.3-8.75 48.45-7.5 51.1-7.5L51.1-7.5ZM99.25 0L89.25-12.7 85.55-8.75 85.55 0 75.75 0 75.75-35 85.55-35 85.55-20.45 99.09-35 110-35 95.7-19.5 110.75 0 99.25 0ZM139.94-9.95L142.94-2.65Q140.24-1.1 136.39-0.2 132.54 0.7 128.39 0.7L128.39 0.7Q122.79 0.7 118.87-0.65 114.94-2 112.97-4.4 110.99-6.8 110.99-9.95L110.99-9.95Q110.99-12.7 112.49-14.8 113.99-16.9 116.64-18.05L116.64-18.05Q114.59-19.1 113.52-20.98 112.44-22.85 112.44-25.1L112.44-25.1Q112.44-28 114.27-30.4 116.09-32.8 119.84-34.25 123.59-35.7 129.09-35.7L129.09-35.7Q132.54-35.7 135.89-35.05 139.24-34.4 141.79-33.3L141.79-33.3 139.09-25.9Q134.44-27.95 129.49-27.95L129.49-27.95Q125.94-27.95 124.19-27.03 122.44-26.1 122.44-24.45L122.44-24.45Q122.44-21.45 126.79-21.45L126.79-21.45 136.69-21.45 136.69-13.9 126.14-13.9Q123.59-13.9 122.29-13.08 120.99-12.25 120.99-10.65L120.99-10.65Q120.99-8.95 122.89-8 124.79-7.05 128.79-7.05L128.79-7.05Q131.64-7.05 134.67-7.83 137.69-8.6 139.94-9.95L139.94-9.95ZM159.19 0.7Q154.94 0.7 150.94-0.35 146.94-1.4 144.44-3.15L144.44-3.15 147.69-10.45Q150.04-8.9 153.14-7.95 156.24-7 159.24-7L159.24-7Q164.94-7 164.94-9.85L164.94-9.85Q164.94-11.35 163.32-12.08 161.69-12.8 158.09-13.6L158.09-13.6Q154.14-14.45 151.49-15.43 148.84-16.4 146.94-18.55 145.04-20.7 145.04-24.35L145.04-24.35Q145.04-27.55 146.79-30.13 148.54-32.7 152.02-34.2 155.49-35.7 160.54-35.7L160.54-35.7Q163.99-35.7 167.34-34.93 170.69-34.15 173.24-32.65L173.24-32.65 170.19-25.3Q165.19-28 160.49-28L160.49-28Q157.54-28 156.19-27.13 154.84-26.25 154.84-24.85L154.84-24.85Q154.84-23.45 156.44-22.75 158.04-22.05 161.59-21.3L161.59-21.3Q165.59-20.45 168.22-19.48 170.84-18.5 172.77-16.38 174.69-14.25 174.69-10.6L174.69-10.6Q174.69-7.45 172.94-4.9 171.19-2.35 167.69-0.83 164.19 0.7 159.19 0.7L159.19 0.7ZM202.64-35L212.54-35 212.54 0 202.64 0 202.64-13.65 189.14-13.65 189.14 0 179.24 0 179.24-35 189.14-35 189.14-21.85 202.64-21.85 202.64-35Z" opacity="1" transform="matrix(1,0,0,1,0,0)" fill="#051726" class="undefined-text-0" data-fill-palette-color="quaternary" id="text-0"></path></svg></g></svg></g></svg></g></svg></g><g transform="matrix(1,0,0,1,139.69007298651158,0)"><svg viewBox="0 0 76.74037402697684 76.21424813677112" height="76.21424813677112" width="76.74037402697684"><g><svg xmlns="http://www.w3.org/2000/svg" xmlns:xlink="http://www.w3.org/1999/xlink" version="1.1" x="0" y="0" viewBox="0.5719999670982361 1 62.428001403808594 62" style="enable-background:new 0 0 64 64;" xml:space="preserve" height="76.21424813677112" width="76.74037402697684" class="icon-icon-0" data-fill-palette-color="accent" id="icon-0"><g fill="#e5f1ee" data-fill-palette-color="accent"><path d="M63 50.782v-7.564l-2.736-0.678c-0.205-0.612-0.448-1.204-0.728-1.77l1.452-2.41-5.349-5.348-2.41 1.451c-0.566-0.28-1.158-0.523-1.769-0.729L50.782 31h-7.564l-0.678 2.735c-0.611 0.205-1.203 0.448-1.769 0.729l-2.41-1.451-5.349 5.348 0.532 0.883L27 38.153v-0.258c2.257-1.04 4.136-2.757 5.376-4.895H34c1.654 0 3-1.346 3-3 1.654 0 3-1.346 3-3v-4c0-1.302-0.839-2.402-2-2.816V16.85C38 8.11 30.89 1 22.151 1c-4.234 0-8.214 1.648-11.207 4.643L10.48 6.105C7.828 6.897 6 9.332 6 12.123v8.061C4.839 20.598 4 21.698 4 23v4c0 1.654 1.346 3 3 3h3.395c0.909 3.513 3.367 6.402 6.605 7.895v0.258l-7.709 1.285c-2.487 0.415-4.566 2.145-5.428 4.513L0.572 53H34.36c0.036 0.076 0.067 0.155 0.104 0.229l-1.452 2.41 5.349 5.348 2.41-1.451c0.566 0.28 1.158 0.523 1.769 0.729L43.218 63h7.564l0.678-2.735c0.611-0.205 1.203-0.448 1.769-0.729l2.41 1.451 5.349-5.348-1.452-2.41c0.28-0.565 0.523-1.157 0.728-1.77L63 50.782zM31.879 51H23v-6.101c2.222-0.453 3.898-2.388 3.982-4.722l7.207 1.201c-0.165 0.379-0.32 0.764-0.453 1.162L31 43.218v7.564L31.879 51zM19 38.605C19.961 38.854 20.963 39 22 39s2.039-0.146 3-0.395V40c0 1.654-1.346 3-3 3s-3-1.346-3-3V38.605zM34 31h-0.7c0.116-0.327 0.217-0.66 0.305-1H35C35 30.552 34.551 31 34 31zM38 27c0 0.552-0.449 1-1 1v-4h-2v4h-1.051C33.977 27.669 34 27.338 34 27v-5h3c0.551 0 1 0.448 1 1V27zM7 28c-0.551 0-1-0.448-1-1v-4c0-0.552 0.449-1 1-1h3v5c0 0.338 0.023 0.669 0.051 1H7zM10 18v2H8v-7.877c0-1.968 1.333-3.676 3.243-4.153l0.269-0.066 0.847-0.847C14.974 4.44 18.451 3 22.151 3 29.787 3 36 9.213 36 16.85V20h-2v-2h-1c-3.602 0-6.988-1.402-9.535-3.949L22 12.585l-1.464 1.466C17.988 16.598 14.602 18 11 18H10zM12 27v-7.031c3.76-0.238 7.262-1.816 9.95-4.504l0.05-0.05 0.05 0.05c2.688 2.688 6.19 4.266 9.95 4.504V27c0 1.422-0.303 2.774-0.841 4h-5.343c-0.414-1.161-1.514-2-2.816-2h-2c-1.654 0-3 1.346-3 3s1.346 3 3 3h2c1.302 0 2.402-0.839 2.816-2h4.165c-1.827 2.423-4.719 4-7.981 4C16.486 37 12 32.514 12 27zM24 32c0 0.552-0.449 1-1 1h-2c-0.551 0-1-0.448-1-1s0.449-1 1-1h2C23.551 31 24 31.448 24 32zM5.743 44.634c0.615-1.691 2.101-2.927 3.877-3.224l7.398-1.233c0.084 2.334 1.76 4.269 3.982 4.722V51H10.281l0.689-2.758-1.94-0.484L8.219 51H3.428L5.743 44.634zM58.678 49.793l-0.161 0.554c-0.25 0.862-0.587 1.682-1.003 2.436l-0.278 0.505 1.232 2.044-3.136 3.137-2.044-1.232-0.505 0.278c-0.756 0.416-1.576 0.754-2.436 1.004l-0.554 0.16L49.218 61h-4.436l-0.575-2.322-0.554-0.16c-0.86-0.25-1.679-0.588-2.436-1.004l-0.505-0.278-2.044 1.232-3.136-3.137 1.232-2.044-0.278-0.505c-0.416-0.754-0.753-1.573-1.003-2.436l-0.161-0.554L33 49.218v-4.436l2.322-0.575 0.161-0.554c0.25-0.862 0.587-1.682 1.003-2.436l0.278-0.505-1.232-2.044 3.136-3.137 2.044 1.232 0.505-0.278c0.756-0.416 1.576-0.754 2.436-1.004l0.554-0.16L44.782 33h4.436l0.575 2.322 0.554 0.16c0.86 0.25 1.679 0.588 2.436 1.004l0.505 0.278 2.044-1.232 3.136 3.137-1.232 2.044 0.278 0.505c0.416 0.754 0.753 1.573 1.003 2.436l0.161 0.554L61 44.782v4.436L58.678 49.793z" fill="#000000" data-fill-palette-color="accent"></path><path d="M47 37c-5.514 0-10 4.486-10 10s4.486 10 10 10 10-4.486 10-10S52.514 37 47 37zM47 55c-4.411 0-8-3.589-8-8s3.589-8 8-8 8 3.589 8 8S51.411 55 47 55z" fill="#000000" data-fill-palette-color="accent"></path><path d="M47 41c-3.309 0-6 2.691-6 6s2.691 6 6 6v-2c-2.206 0-4-1.794-4-4s1.794-4 4-4 4 1.794 4 4h2C53 43.691 50.309 41 47 41z" fill="#000000" data-fill-palette-color="accent"></path><circle cx="16" cy="23" r="1.0" fill="#000000" data-fill-palette-color="accent"></circle><circle cx="28" cy="23" r="1.0" fill="#000000" data-fill-palette-color="accent"></circle></g></svg></g></svg></g><g></g></svg></g></svg><rect width="356.12052" height="177.3280998421048" fill="none" stroke="none" visibility="hidden"></rect></g></svg></g></svg>